<?xml version="1.0" standalone="no"?>
<!DOCTYPE svg PUBLIC "-//W3C//DTD SVG 20010904//EN"
 "http://www.w3.org/TR/2001/REC-SVG-20010904/DTD/svg10.dtd">
<svg version="1.0" xmlns="http://www.w3.org/2000/svg"
 width="270.000000pt" height="270.000000pt" viewBox="0 0 270.000000 270.000000"
 preserveAspectRatio="xMidYMid meet">
<metadata>
Created by potrace 1.11, written by Peter Selinger 2001-2013
</metadata>
<g transform="translate(0.000000,270.000000) scale(0.100000,-0.100000)"
fill="#000000" stroke="none">
<path d="M1235 2658 c-11 -7 -61 -15 -112 -19 -73 -5 -100 -11 -136 -32 -24
-15 -64 -29 -88 -32 -62 -9 -119 -34 -153 -67 -15 -15 -47 -33 -70 -40 -51
-15 -118 -59 -140 -92 -9 -14 -33 -34 -54 -45 -41 -21 -122 -103 -122 -124 0
-7 -24 -35 -54 -63 -35 -34 -64 -74 -86 -120 -18 -38 -43 -82 -55 -99 -33 -44
-55 -110 -55 -159 0 -32 -7 -52 -24 -73 -30 -36 -49 -123 -36 -159 12 -30 4
-90 -16 -119 -17 -24 -18 -99 -1 -128 7 -14 12 -60 12 -122 0 -91 2 -104 28
-147 17 -29 27 -61 27 -86 0 -56 18 -102 55 -142 40 -43 65 -91 65 -125 0 -34
40 -94 68 -101 29 -8 70 -61 78 -101 8 -39 58 -87 106 -102 35 -11 98 -70 98
-91 0 -17 74 -58 119 -65 32 -5 54 -18 82 -46 49 -49 78 -61 151 -65 59 -3 91
-15 120 -44 23 -24 93 -33 149 -19 41 11 51 10 91 -9 51 -25 112 -28 148 -7
29 16 83 19 109 6 23 -13 95 4 130 30 21 15 46 22 92 23 72 3 103 15 139 58
20 23 36 31 75 35 48 6 115 37 115 53 0 23 54 70 87 76 45 8 99 55 113 98 8
24 24 40 58 59 54 30 92 80 92 122 0 22 12 40 48 74 59 56 82 97 82 150 0 30
7 49 30 74 41 47 53 82 51 155 -1 45 5 74 19 103 21 40 22 53 19 214 0 33 0
85 0 116 0 37 -6 69 -19 94 -13 25 -20 59 -20 92 0 59 -13 98 -54 157 -15 23
-26 53 -26 72 0 41 -30 97 -70 131 -17 14 -34 42 -41 66 -14 51 -52 103 -101
133 -21 13 -47 41 -57 63 -21 41 -78 92 -127 112 -16 7 -49 32 -74 55 -50 47
-134 94 -166 94 -12 0 -39 12 -60 26 -58 40 -142 66 -186 59 -29 -4 -50 1 -87
21 -43 22 -62 25 -128 24 -43 -1 -109 1 -148 5 -48 4 -76 2 -90 -7z m322 -44
c415 -61 793 -343 971 -725 94 -200 128 -377 119 -614 -7 -200 -35 -314 -122
-491 -106 -218 -250 -385 -444 -515 -308 -208 -657 -267 -1045 -179 -61 13
-230 82 -311 126 -217 118 -414 329 -530 569 -92 192 -120 319 -120 550 1 189
16 287 67 435 98 281 329 556 589 698 69 38 212 98 267 112 23 5 60 15 82 20
123 31 324 37 477 14z"/>
<path d="M1210 2600 c-194 -21 -437 -114 -595 -228 -106 -77 -261 -241 -330
-351 -249 -397 -259 -935 -23 -1323 341 -562 1015 -779 1617 -519 309 133 577
427 689 756 11 33 30 107 42 165 19 91 22 127 17 270 -4 137 -9 182 -32 269
-53 205 -147 382 -283 536 -147 167 -316 285 -518 361 -149 56 -405 84 -584
64z m-4 -35 c6 -14 8 -13 19 2 11 15 15 15 29 4 11 -9 16 -10 16 -2 0 15 27
14 33 -1 4 -10 8 -9 16 2 9 12 14 13 31 2 12 -7 20 -8 20 -2 0 5 7 10 15 10 8
0 15 -5 15 -11 0 -8 5 -7 15 1 12 10 19 10 27 2 9 -9 15 -9 25 0 11 9 15 6 20
-12 6 -22 7 -22 20 -4 14 18 16 18 26 2 10 -15 12 -15 24 0 12 16 14 16 26 0
11 -14 16 -15 26 -5 10 9 15 9 24 -3 7 -9 20 -14 30 -12 9 2 17 -1 17 -6 0 -6
9 -8 20 -5 14 4 20 0 20 -12 0 -14 3 -15 14 -6 11 9 17 9 27 -2 8 -8 21 -12
31 -9 10 2 20 -2 23 -10 4 -10 15 -13 32 -10 21 4 25 2 20 -12 -5 -13 -2 -15
18 -10 18 5 25 2 25 -9 0 -10 7 -13 20 -10 14 4 20 0 20 -12 0 -12 5 -15 16
-11 10 4 18 0 21 -13 3 -13 11 -17 24 -14 10 3 19 1 19 -5 0 -5 9 -12 21 -15
14 -4 18 -10 13 -18 -5 -9 -2 -10 9 -6 9 3 20 0 24 -7 5 -7 16 -16 26 -19 11
-4 15 -12 11 -19 -5 -8 -2 -9 9 -5 11 4 22 -1 29 -13 7 -11 18 -20 25 -20 7 0
13 -9 13 -21 0 -15 5 -19 15 -15 10 3 18 -1 22 -11 9 -22 35 -48 58 -57 14 -5
16 -9 7 -18 -17 -17 -15 -28 3 -22 9 4 18 -1 22 -12 4 -11 15 -25 24 -32 10
-7 16 -19 13 -27 -4 -9 0 -15 10 -15 9 0 16 -8 16 -19 0 -10 7 -21 15 -25 8
-3 15 -12 15 -20 0 -7 7 -17 16 -20 10 -4 13 -13 9 -25 -3 -12 0 -21 11 -25 9
-3 14 -13 11 -20 -3 -8 1 -17 10 -20 9 -4 13 -14 10 -26 -3 -13 0 -20 9 -20
17 0 18 -22 2 -38 -9 -9 -8 -12 6 -12 13 0 17 -5 13 -19 -3 -12 1 -22 10 -25
9 -4 13 -14 10 -26 -3 -12 1 -24 11 -29 14 -8 15 -13 4 -30 -10 -17 -10 -21 2
-21 24 0 26 -29 3 -45 l-21 -15 22 0 c18 0 23 -5 21 -22 -2 -13 0 -29 5 -36 4
-7 5 -20 2 -29 -4 -9 -1 -20 6 -24 10 -7 9 -12 -4 -25 -16 -16 -16 -18 0 -31
16 -12 16 -14 -1 -27 -16 -12 -16 -14 -2 -20 12 -4 13 -10 6 -24 -7 -13 -6
-23 2 -31 9 -10 8 -15 -6 -26 -18 -13 -18 -14 0 -24 17 -11 17 -12 -1 -26 -15
-12 -17 -18 -8 -27 9 -9 8 -16 -5 -30 -10 -11 -11 -18 -5 -18 18 0 14 -28 -5
-39 -15 -8 -15 -11 -3 -26 12 -14 10 -17 -8 -22 -24 -6 -28 -18 -12 -28 8 -5
7 -12 -2 -22 -7 -9 -12 -24 -10 -35 2 -10 -2 -18 -8 -18 -7 0 -9 -8 -5 -20 4
-13 1 -22 -8 -26 -9 -3 -13 -13 -10 -25 3 -11 -1 -21 -10 -25 -9 -3 -13 -12
-10 -20 3 -7 -2 -16 -10 -20 -9 -3 -13 -13 -10 -25 3 -11 -1 -21 -10 -25 -9
-3 -13 -12 -10 -20 3 -7 -2 -17 -11 -20 -9 -3 -16 -15 -16 -25 0 -10 -7 -19
-15 -19 -9 0 -12 -6 -8 -16 4 -10 -1 -17 -15 -21 -13 -3 -19 -10 -15 -20 4 -9
-2 -16 -16 -20 -12 -3 -20 -12 -19 -21 2 -9 -8 -22 -22 -29 -14 -7 -20 -13
-15 -13 6 0 1 -9 -10 -18 -11 -10 -25 -27 -31 -37 -6 -11 -17 -20 -25 -20 -8
0 -16 -9 -19 -20 -3 -11 -12 -20 -20 -20 -8 0 -20 -9 -26 -20 -5 -11 -18 -19
-27 -17 -12 2 -17 -4 -17 -19 0 -16 -5 -20 -19 -16 -13 3 -21 -1 -24 -15 -4
-14 -11 -18 -25 -14 -15 5 -20 2 -18 -11 1 -14 -6 -18 -26 -16 -20 1 -28 -3
-28 -14 0 -10 -6 -14 -20 -10 -15 4 -20 0 -20 -14 0 -21 -30 -27 -31 -6 0 6
-5 1 -10 -12 -7 -18 -14 -22 -34 -17 -19 5 -25 2 -25 -10 0 -11 -6 -15 -20
-11 -14 3 -20 0 -20 -10 0 -10 -6 -14 -18 -11 -10 3 -23 -1 -31 -9 -9 -10 -16
-11 -26 -3 -9 8 -14 7 -19 -5 -7 -18 -32 -20 -39 -2 -3 7 -6 5 -6 -5 -1 -21
-21 -24 -39 -6 -9 9 -12 8 -12 -6 0 -13 -5 -17 -20 -13 -11 3 -20 1 -20 -4 0
-5 -12 -9 -27 -8 -16 1 -43 -1 -60 -5 -25 -6 -33 -4 -33 6 0 10 -2 10 -8 1 -9
-14 -72 -14 -89 0 -9 6 -13 6 -13 -2 0 -6 -7 -11 -15 -11 -8 0 -15 5 -15 11 0
8 -5 8 -15 -1 -12 -10 -18 -10 -30 0 -10 8 -15 9 -15 2 0 -15 -61 -6 -71 10
-7 10 -9 10 -9 1 0 -7 -7 -13 -15 -13 -8 0 -15 4 -15 9 0 5 -9 7 -20 4 -11 -3
-20 -1 -20 5 0 6 -9 8 -20 5 -15 -4 -20 0 -21 13 0 11 -3 14 -6 7 -6 -16 -33
-17 -33 -2 0 5 -4 8 -10 4 -16 -10 -60 6 -60 22 0 12 -3 13 -14 4 -10 -8 -16
-8 -25 2 -6 8 -7 18 -3 23 4 4 -1 2 -10 -5 -15 -11 -19 -11 -24 2 -3 9 -13 13
-25 10 -14 -4 -19 0 -19 13 0 15 -2 16 -9 5 -7 -11 -13 -10 -35 4 -14 10 -26
22 -26 27 0 5 -4 6 -10 3 -16 -10 -59 25 -53 43 5 14 3 15 -8 5 -19 -19 -29
-16 -29 8 0 11 -4 17 -10 14 -13 -8 -60 24 -60 41 0 8 -7 14 -15 14 -23 0 -54
31 -47 48 3 9 1 13 -5 9 -16 -10 -45 4 -39 18 2 7 -5 15 -16 18 -11 3 -17 10
-14 15 3 5 -3 12 -14 15 -14 3 -18 10 -14 21 4 9 3 16 -2 15 -24 -4 -36 2 -30
16 3 9 0 15 -9 15 -8 0 -15 5 -15 10 0 6 -10 21 -22 33 -13 12 -29 33 -36 46
-8 13 -23 39 -33 58 -11 19 -17 38 -14 44 4 5 -1 9 -11 9 -11 0 -15 6 -11 20
3 11 1 20 -3 20 -14 0 -40 59 -29 66 6 3 3 11 -7 18 -9 7 -14 18 -10 24 4 7 2
12 -5 12 -6 0 -9 8 -6 19 3 12 -1 22 -11 26 -11 4 -12 9 -4 17 8 8 7 15 -6 24
-15 12 -15 15 -2 23 12 9 12 11 -3 17 -11 4 -16 13 -12 24 3 10 1 21 -5 25 -8
5 -8 11 1 21 9 11 9 14 -1 14 -8 0 -10 8 -6 24 4 15 1 26 -7 29 -9 3 -9 7 1
19 9 12 10 18 2 23 -6 4 -8 15 -5 25 3 10 0 22 -6 26 -9 5 -7 11 6 21 18 13
18 13 -1 28 -17 14 -18 16 -3 28 13 9 14 16 5 31 -8 14 -8 20 2 23 10 4 10 8
2 19 -7 7 -8 19 -4 26 5 7 7 20 6 30 -2 9 2 19 8 23 8 5 8 11 -1 21 -9 11 -8
15 5 20 11 4 14 13 10 30 -4 15 -2 24 6 24 7 0 9 8 5 19 -3 11 -1 22 5 26 6 4
8 15 5 26 -4 11 -2 19 5 19 6 0 8 10 4 25 -4 17 -1 27 9 31 9 3 13 13 10 25
-4 13 0 19 12 19 12 0 15 5 10 20 -4 13 -1 22 9 26 8 3 12 12 9 20 -3 7 2 17
11 20 11 4 14 13 11 25 -4 12 -1 21 9 25 9 3 16 13 16 20 0 8 7 17 16 21 8 3
13 12 10 20 -4 9 2 17 15 20 12 4 18 11 15 20 -3 7 2 17 12 21 9 4 17 14 17
22 0 8 8 14 18 14 10 -1 17 5 17 17 0 11 7 19 15 19 9 0 12 6 8 16 -4 10 1 17
15 21 11 2 23 14 25 25 4 14 11 19 23 14 12 -5 15 -2 10 9 -3 10 1 18 14 23
10 4 19 12 19 17 1 6 7 10 14 10 6 0 15 8 19 18 5 12 14 16 27 12 14 -4 19 -1
17 12 0 12 5 17 17 17 10 -1 16 1 13 4 -3 3 -1 11 5 19 9 10 15 11 26 1 12
-10 14 -8 11 8 -2 15 2 18 19 17 14 -2 22 2 20 10 -1 6 6 11 16 11 9 -1 17 4
17 12 0 8 9 14 20 14 11 0 20 5 20 11 0 6 9 9 19 6 12 -3 22 1 25 9 3 8 12 14
21 14 8 0 15 5 15 11 0 6 8 8 19 4 12 -4 21 0 25 11 5 13 9 14 21 4 12 -10 15
-9 15 5 0 12 6 16 19 12 12 -3 22 1 26 12 6 14 8 14 21 -3 13 -18 14 -19 14
-2 0 13 5 17 20 13 10 -3 25 1 31 9 9 11 15 11 25 3 11 -9 14 -8 14 1 0 8 8
10 21 7 12 -3 22 0 26 9 7 18 22 18 29 -1z"/>
<path d="M1250 2494 c-68 -8 -189 -34 -247 -53 -377 -120 -679 -450 -768 -836
-23 -98 -35 -263 -26 -340 5 -38 9 -58 10 -42 0 15 6 27 11 27 6 0 10 14 10
30 0 17 4 30 9 30 5 0 5 -15 1 -35 -5 -24 -4 -35 4 -35 6 0 4 -5 -4 -10 -8 -5
-12 -10 -7 -11 4 -1 12 -3 17 -4 6 -1 17 -3 26 -4 8 0 13 -5 10 -9 -7 -12 26
-11 42 1 8 6 12 6 12 -2 0 -6 5 -11 11 -11 6 0 9 7 6 14 -4 10 -1 13 9 9 12
-4 12 -8 2 -21 -11 -14 -10 -15 7 -8 16 6 18 5 8 -5 -7 -7 -13 -17 -13 -22 0
-4 6 -5 13 0 22 14 39 12 33 -3 -3 -8 -2 -13 3 -9 15 9 40 -6 35 -20 -3 -8 1
-12 12 -12 11 1 18 -6 19 -20 1 -15 -3 -20 -14 -15 -10 3 -8 -4 8 -21 13 -15
28 -24 32 -21 5 3 9 0 9 -5 0 -14 -13 -14 -28 1 -9 9 -12 9 -12 0 0 -6 8 -16
18 -21 9 -6 11 -11 5 -11 -7 0 -13 -7 -13 -16 0 -11 6 -14 23 -8 12 3 18 3 14
-2 -11 -11 -67 -14 -67 -3 0 5 -11 7 -25 5 -14 -3 -23 -1 -20 5 4 5 12 9 20 9
8 0 13 9 12 19 0 11 -5 17 -10 14 -5 -3 -7 0 -5 8 3 8 15 13 29 10 24 -3 24
-3 5 18 -24 26 -61 24 -64 -3 -1 -17 1 -18 8 -6 8 12 10 10 10 -7 0 -29 -13
-29 -34 -1 -9 13 -14 17 -11 10 3 -6 2 -12 -4 -12 -5 0 -9 -9 -8 -20 1 -11 5
-20 10 -20 5 0 7 7 3 15 -5 13 -2 14 15 4 15 -8 19 -16 14 -32 -12 -42 -14
-67 -2 -60 7 4 8 0 3 -12 -7 -18 -6 -18 14 0 24 22 25 27 4 23 -10 -2 -19 3
-22 11 -3 8 0 11 7 7 6 -4 11 -2 11 3 0 6 6 10 12 8 17 -3 31 -39 19 -47 -6
-3 -2 -11 9 -18 22 -13 33 -3 19 18 -12 20 -11 30 1 30 5 0 9 -3 9 -7 -3 -19
2 -33 12 -33 6 0 9 6 6 14 -3 8 2 20 11 28 15 11 16 11 6 -2 -5 -8 -9 -26 -8
-39 2 -29 -15 -49 -36 -44 -13 4 -13 3 -1 -5 8 -6 19 -8 26 -6 14 6 40 -40 31
-54 -3 -5 1 -12 9 -16 8 -3 15 -10 15 -16 0 -6 -3 -9 -7 -7 -5 3 -8 -5 -8 -18
0 -13 2 -21 4 -19 2 2 13 -3 23 -13 10 -9 18 -13 18 -8 0 4 -8 14 -17 21 -10
7 -13 14 -8 14 19 0 88 -77 76 -85 -6 -3 -8 -11 -5 -17 4 -6 0 -14 -7 -19 -10
-6 -8 -9 9 -9 16 0 22 6 22 22 0 17 3 19 12 10 7 -7 13 -20 13 -30 0 -9 5 -17
12 -17 6 0 15 -4 20 -9 5 -5 3 -6 -4 -2 -19 11 -16 -2 11 -37 12 -18 26 -40
29 -50 6 -15 3 -17 -14 -12 -15 5 -19 4 -14 -5 4 -6 18 -10 31 -7 13 2 24 0
24 -4 0 -5 7 -9 15 -9 8 0 15 -5 15 -10 0 -6 7 -10 16 -8 22 4 29 -16 12 -34
-20 -21 -22 -41 -3 -34 9 3 18 6 21 6 2 0 1 6 -2 14 -3 8 -1 16 4 20 10 6 9
-24 -2 -42 -5 -8 0 -12 16 -12 18 0 20 -2 8 -10 -13 -8 -13 -12 3 -27 10 -10
17 -13 15 -8 -2 6 2 10 7 10 6 0 9 -3 7 -7 -2 -8 14 -12 31 -9 5 1 6 -3 2 -8
-3 -6 8 -17 25 -26 42 -22 37 -28 -7 -9 -21 9 -51 20 -66 25 -93 28 -273 155
-381 269 -103 110 -208 283 -250 414 -4 10 -9 17 -11 14 -13 -13 79 -212 137
-296 92 -134 241 -272 381 -354 374 -218 855 -205 1217 34 445 292 638 854
463 1343 -142 395 -459 673 -868 760 -71 15 -281 27 -345 19z m513 -101 c18
-11 33 -26 33 -34 1 -8 2 -20 3 -26 0 -7 6 -13 12 -13 6 0 8 8 5 18 -6 16 -5
16 7 0 8 -10 16 -15 19 -12 4 3 9 1 12 -5 4 -6 -2 -8 -14 -6 -11 2 -20 -1 -20
-6 0 -6 -4 -7 -10 -4 -12 7 -12 -21 -1 -50 4 -11 5 -35 1 -55 -19 -88 -20
-104 -10 -94 6 6 13 34 17 62 3 29 9 52 13 52 4 0 5 -15 3 -32 -2 -18 -5 -58
-8 -88 -3 -55 -21 -117 -31 -108 -2 3 -1 23 4 45 7 31 6 40 -5 40 -8 0 -11 -7
-8 -18 3 -10 -2 -33 -11 -51 l-17 -33 -9 30 c-17 57 -18 69 -5 77 7 4 3 6 -11
5 -25 -1 -27 -7 -9 -27 10 -12 9 -12 -6 0 -10 7 -17 20 -16 29 4 44 -2 82 -12
75 -6 -3 -9 -18 -6 -32 3 -14 -1 -43 -9 -64 -7 -21 -13 -42 -13 -46 1 -20 -31
-24 -66 -8 -39 19 -65 16 -65 -8 0 -14 -29 -31 -38 -21 -3 2 1 12 9 21 13 16
12 16 -15 2 -22 -11 -34 -12 -52 -4 -13 6 -24 15 -24 19 0 5 -4 5 -10 2 -22
-14 -8 15 17 34 28 23 28 23 -4 40 -24 12 -31 45 -13 56 6 4 8 21 4 41 -4 25
-1 42 12 62 10 15 26 43 35 62 34 74 97 103 207 96 46 -3 84 -11 105 -23z
m121 -123 c8 -16 10 -30 5 -30 -8 0 -29 41 -29 56 0 12 10 1 24 -26z m-15 -93
c-6 -10 -8 -21 -5 -24 9 -9 26 8 26 28 0 10 5 19 10 19 14 0 12 -12 -6 -38 -9
-13 -21 -21 -27 -19 -16 5 -16 54 0 54 9 0 9 -5 2 -20z m41 -47 c0 -5 -4 -10
-10 -10 -5 0 -10 5 -10 10 0 6 5 10 10 10 6 0 10 -4 10 -10z m-54 -25 c-6 -25
8 -36 17 -12 2 6 6 10 9 7 2 -3 -4 -21 -14 -40 -10 -19 -17 -28 -15 -20 2 8 0
23 -5 33 -5 10 -6 27 -3 37 9 29 18 24 11 -5z m-152 -71 c9 -4 22 -16 28 -28
10 -20 10 -20 -8 -5 -10 9 -28 21 -39 27 -21 12 -7 16 19 6z m156 -18 c0 -3
-4 -8 -10 -11 -5 -3 -10 -1 -10 4 0 6 5 11 10 11 6 0 10 -2 10 -4z m-390 -66
c0 -11 5 -20 10 -20 6 0 10 6 8 13 -2 6 2 13 7 13 6 1 9 -1 8 -6 -1 -4 10 -6
25 -4 15 2 19 1 9 -2 -14 -5 -16 -9 -6 -20 6 -8 17 -14 24 -14 8 0 15 -5 17
-11 2 -7 9 -5 17 5 12 14 12 16 -3 10 -9 -3 -16 -2 -16 4 0 5 7 13 16 16 8 3
12 11 9 16 -4 6 -1 17 5 25 9 11 16 12 30 3 14 -9 21 -8 35 5 22 23 35 21 35
-3 0 -11 -7 -20 -16 -20 -9 0 -12 5 -8 13 4 7 3 8 -2 4 -5 -5 -9 -19 -9 -30 0
-14 -5 -21 -16 -19 -8 1 -22 -9 -29 -23 -7 -13 -17 -22 -22 -19 -4 3 -8 1 -8
-3 0 -5 -9 -9 -20 -10 -11 -1 -18 2 -15 7 5 8 -32 35 -45 33 -3 -1 -4 3 -2 9
1 5 -3 8 -10 5 -7 -2 -12 -10 -10 -16 3 -14 -36 -14 -77 0 -20 7 -31 18 -31
30 0 10 4 19 9 19 4 0 6 11 4 25 l-5 24 41 -20 c27 -13 41 -26 41 -39z m395
12 c-5 -22 -5 -22 18 -7 22 14 25 14 37 0 12 -14 10 -15 -12 -10 -18 5 -27 2
-31 -9 -6 -14 -10 -14 -27 -4 -11 7 -20 20 -20 28 0 11 -3 12 -8 3 -4 -7 -13
-9 -21 -4 -18 11 13 29 46 27 20 -1 23 -5 18 -24z m-120 -6 c12 -12 12 -15 -2
-21 -10 -3 -14 -3 -10 1 4 4 2 13 -4 21 -15 17 -1 17 16 -1z m-30 -16 c3 -5 1
-10 -4 -10 -6 0 -11 5 -11 10 0 6 2 10 4 10 3 0 8 -4 11 -10z m165 -15 c18 17
19 16 26 -11 4 -16 18 -37 31 -47 13 -10 21 -23 18 -28 -4 -5 0 -9 9 -9 8 0
16 -4 18 -9 7 -17 112 -131 121 -131 6 0 2 10 -9 23 -17 20 -17 20 8 -2 15
-13 25 -28 22 -33 -7 -10 14 -38 28 -38 6 0 5 7 -2 15 -24 30 -3 14 31 -22 33
-35 33 -36 5 -19 l-29 18 19 -25 c11 -14 34 -33 52 -41 18 -9 31 -20 27 -25
-3 -5 4 -12 15 -16 11 -4 18 -10 15 -15 -3 -5 -1 -11 5 -15 5 -3 10 0 10 7 0
8 4 7 11 -4 6 -10 16 -15 26 -11 11 4 14 2 11 -8 -3 -8 2 -20 11 -26 14 -11
12 -16 -16 -42 -23 -22 -38 -28 -55 -23 -21 6 -21 6 -3 10 43 7 45 11 22 36
-12 14 -58 66 -102 115 -44 49 -87 88 -95 87 -15 -1 -60 44 -60 60 1 5 12 -4
26 -21 14 -16 21 -21 16 -10 -10 19 -30 39 -83 80 -14 11 -26 24 -26 28 -2 12
-113 111 -140 126 -13 6 -23 19 -23 28 0 14 2 14 20 -2 19 -17 21 -17 40 0z
m-235 -34 c-3 -6 -11 -11 -16 -11 -5 0 -4 6 3 14 14 16 24 13 13 -3z m-555
-31 c35 -36 38 -55 10 -70 -16 -8 -18 -8 -14 4 9 23 -35 30 -76 12 -19 -8 -64
-22 -100 -31 -36 -9 -71 -24 -79 -33 -9 -12 -15 -13 -18 -5 -3 9 -10 9 -29 1
-13 -6 -24 -15 -24 -19 0 -4 -7 -10 -16 -13 -8 -3 -12 -2 -9 4 7 11 -24 13
-49 4 -9 -3 -16 -12 -16 -20 0 -8 -7 -14 -16 -14 -13 0 -14 3 -4 15 10 12 8
14 -7 11 -77 -15 -109 -19 -115 -18 -5 1 -8 -3 -8 -9 0 -5 -4 -8 -9 -4 -6 3
-35 -8 -65 -25 -35 -19 -56 -25 -56 -17 0 7 -9 18 -20 25 -15 9 -19 19 -15 40
6 27 6 27 -9 -3 -13 -27 -14 -28 -15 -8 -1 13 9 29 23 39 21 13 33 14 81 4 68
-14 194 -1 340 36 129 32 172 49 217 85 38 30 54 37 43 19 -3 -5 1 -10 9 -10
10 0 13 6 10 15 -9 23 4 18 36 -15z m40 20 c0 -5 -7 -10 -15 -10 -8 0 -15 5
-15 10 0 6 7 10 15 10 8 0 15 -4 15 -10z m385 -12 c7 -8 5 -9 -7 -5 -19 7 -25
-8 -8 -18 6 -3 10 -11 10 -17 0 -6 -6 -6 -15 2 -21 17 -30 6 -10 -13 21 -21
19 -30 -4 -17 -11 5 -29 10 -40 10 -12 0 -21 5 -21 11 0 5 -4 7 -10 4 -5 -3
-10 -1 -10 6 0 8 11 9 33 5 23 -4 28 -3 17 4 -8 5 -23 10 -33 10 -11 0 -15 5
-11 11 4 6 21 9 43 5 l36 -5 -30 15 -30 15 40 -6 c22 -4 45 -11 50 -17z m-317
-7 c15 -10 51 -26 80 -35 57 -16 122 -52 122 -66 0 -18 -22 -21 -39 -6 -10 9
-23 16 -30 16 -16 0 -160 77 -181 96 -23 22 16 18 48 -5z m-26 -41 c11 0 18
-5 15 -12 -2 -7 -12 -12 -21 -12 -9 1 -16 -4 -16 -12 0 -8 5 -14 10 -14 14 0
12 -53 -2 -70 -11 -12 -10 -12 4 -2 9 7 19 9 21 4 3 -4 -3 -13 -13 -20 -23
-14 -44 5 -30 28 6 8 10 26 10 39 0 21 -3 23 -29 18 l-29 -6 24 24 c20 20 23
29 14 44 -15 30 -11 39 7 14 8 -13 24 -23 35 -23z m534 8 c5 -8 2 -9 -9 -5
-15 6 -22 -7 -19 -35 2 -14 -24 -27 -38 -18 -12 8 -10 10 7 10 16 0 21 4 17
15 -7 17 -34 21 -34 4 0 -6 -9 -8 -21 -4 -14 5 -19 3 -15 -4 8 -13 -51 -44
-70 -37 -8 3 -13 2 -10 -3 3 -4 -8 -8 -24 -9 -17 0 -30 3 -30 7 0 16 26 29
114 55 49 14 91 28 94 31 9 9 31 5 38 -7z m-493 -35 c-4 -10 -2 -14 5 -9 6 3
13 2 16 -3 3 -5 -1 -11 -9 -15 -8 -3 -15 -1 -15 4 0 6 -5 10 -11 10 -5 0 -7
-5 -3 -12 4 -7 3 -8 -4 -4 -9 5 -8 12 1 26 14 24 29 26 20 3z m253 -4 c3 -5 2
-9 -3 -10 -47 -5 -63 -3 -67 8 -3 6 0 13 7 16 16 5 56 -4 63 -14z m278 -4 c-4
-8 -2 -15 2 -15 5 0 29 -18 53 -40 24 -22 47 -38 49 -35 3 3 11 0 19 -6 7 -6
13 -8 13 -3 0 4 10 -2 23 -13 19 -19 76 -47 219 -111 26 -12 36 -22 32 -32 -3
-8 -2 -11 2 -8 3 4 15 -3 25 -15 10 -12 18 -17 19 -11 0 5 -20 34 -45 63 -54
64 -60 86 -7 30 60 -65 62 -67 62 -74 0 -4 11 -16 25 -27 26 -20 62 -79 48
-77 -18 1 -67 36 -70 49 -3 11 0 10 10 -2 18 -22 27 -23 27 -3 0 19 -42 37
-51 22 -4 -6 -12 -1 -20 11 -7 11 -19 18 -26 15 -7 -3 -13 2 -13 11 0 9 -5 16
-11 16 -7 0 -18 8 -26 18 -10 11 -12 12 -8 2 5 -12 4 -12 -7 1 -7 9 -21 15
-30 13 -10 -1 -18 2 -18 7 0 5 -3 8 -7 8 -21 -3 -33 2 -33 16 0 9 -6 12 -16 8
-10 -3 -22 0 -28 8 -6 8 -45 31 -87 52 -42 20 -79 44 -83 52 -3 9 -14 13 -28
11 -13 -2 -29 1 -36 7 -7 5 -16 7 -20 3 -4 -4 1 -13 11 -20 9 -7 17 -18 17
-25 0 -6 -9 -2 -20 9 -30 30 -26 74 8 87 15 6 28 11 29 12 1 1 0 -6 -3 -14z
m-432 -67 c14 -15 36 -28 47 -28 25 0 26 8 4 32 -9 10 -11 18 -5 18 6 0 14 -5
17 -11 5 -7 13 -5 25 6 13 12 23 13 44 6 25 -10 36 -31 16 -31 -5 0 -10 -7
-10 -15 0 -22 18 -18 25 5 3 11 11 20 16 20 12 0 11 -7 -2 -31 -9 -18 -8 -19
18 -13 15 4 44 14 63 22 19 8 38 14 42 14 4 -1 5 4 3 11 -9 23 11 40 31 28 11
-6 15 -11 10 -11 -4 0 4 -17 20 -37 19 -25 23 -35 11 -30 -9 3 -19 2 -22 -3
-4 -6 -1 -10 6 -10 7 0 5 -9 -7 -22 -17 -21 -16 -21 9 1 25 23 33 20 28 -11 0
-5 7 -8 16 -8 14 0 15 -2 4 -9 -9 -6 -10 -11 -2 -15 11 -7 16 0 24 39 3 11 5
0 4 -25 0 -57 -8 -73 -53 -100 -23 -15 -32 -25 -24 -30 8 -5 7 -9 -5 -13 -10
-5 -14 -3 -9 4 6 10 -51 8 -120 -4 -5 -1 -10 3 -13 9 -2 8 16 15 49 19 61 8
83 18 121 53 28 27 34 42 17 42 -5 0 -10 -6 -10 -14 0 -7 -7 -19 -15 -26 -18
-15 -19 -10 -3 27 18 42 18 66 2 52 -8 -6 -12 -15 -9 -19 6 -10 -63 -38 -115
-46 -36 -6 -40 -5 -34 12 5 15 4 16 -4 4 -7 -9 -24 -13 -51 -11 -32 2 -42 -2
-52 -20 -10 -20 -9 -25 11 -41 12 -10 35 -18 51 -18 16 0 29 -5 29 -11 0 -7
-18 -8 -54 -4 l-53 7 -7 -32 c-3 -18 -6 -38 -6 -45 0 -14 79 -50 88 -40 3 3 1
5 -5 5 -5 0 -23 11 -38 24 -23 20 -26 28 -17 39 7 8 8 18 4 22 -4 5 -1 5 6 1
10 -6 10 -11 1 -22 -7 -9 -8 -14 -1 -14 6 0 14 9 17 20 8 25 43 26 61 3 13
-17 15 -17 28 0 8 11 27 17 52 17 l40 0 2 -45 c1 -25 -4 -47 -10 -51 -6 -4
-36 -7 -66 -6 -45 1 -52 -1 -42 -12 6 -9 7 -17 2 -20 -12 -7 -72 12 -93 30
-21 18 -48 18 -55 -1 -4 -8 -10 -15 -15 -15 -5 0 -9 7 -9 15 0 21 -17 19 -30
-4 -5 -11 -24 -28 -42 -39 -18 -12 -41 -36 -52 -56 -20 -38 -46 -46 -105 -34
-36 7 -110 72 -136 120 -16 28 -23 103 -12 115 4 3 7 -7 7 -24 0 -34 18 -93
29 -93 4 0 13 6 21 13 12 10 12 9 1 -6 -12 -15 -11 -21 10 -43 54 -58 159 -78
159 -31 0 8 -3 8 -12 -1 -16 -16 -41 -16 -32 1 6 8 3 8 -9 -1 -12 -10 -20 -11
-34 -3 -16 10 -16 11 -1 9 9 -2 17 2 17 7 0 6 -7 9 -14 7 -10 -2 -13 3 -9 13
4 9 3 15 -2 13 -12 -4 -55 40 -45 46 4 3 19 -6 32 -20 27 -29 70 -54 105 -60
40 -7 27 10 -18 24 -24 7 -62 31 -84 54 l-42 40 -22 -22 c-12 -12 -24 -19 -27
-17 -7 8 30 47 39 41 12 -7 10 -2 -13 50 -23 53 -23 117 1 124 13 4 13 3 2
-11 -16 -19 -8 -73 18 -111 17 -27 18 -27 36 -9 19 19 20 19 58 -19 26 -26 33
-38 22 -38 -9 0 -16 5 -16 10 0 6 -12 10 -27 10 -21 0 -24 3 -13 10 8 5 11 12
7 16 -4 4 -15 0 -24 -9 -16 -15 -15 -18 7 -42 13 -14 30 -23 38 -20 7 2 11 1
8 -3 -10 -16 21 -37 59 -40 27 -1 48 4 64 16 l23 19 -56 27 c-85 42 -165 137
-167 198 -3 72 1 85 26 96 14 6 25 18 25 26 0 8 5 18 11 22 7 4 9 0 5 -13 -6
-19 27 -113 39 -113 4 0 4 4 0 9 -7 13 16 26 24 14 6 -10 51 -37 63 -38 3 0
10 -4 15 -9 5 -5 -2 -6 -17 -2 -14 4 -38 8 -53 10 l-29 2 38 -32 c47 -41 111
-55 131 -28 19 26 13 36 -34 59 -54 26 -83 53 -99 92 -16 38 -18 67 -4 58 6
-3 10 -14 10 -24 0 -20 46 -70 83 -90 35 -19 73 -7 79 24 3 13 1 22 -3 19 -17
-10 -87 45 -98 77 -14 40 -13 50 2 24 7 -10 24 -32 39 -47z m133 42 c3 -5 2
-10 -4 -10 -5 0 -13 5 -16 10 -3 6 -2 10 4 10 5 0 13 -4 16 -10z m-191 -26 c9
-24 0 -29 -19 -11 -19 19 -19 27 -1 27 8 0 17 -7 20 -16z m346 6 c0 -16 -30
-27 -58 -22 -27 5 -27 5 8 18 44 16 50 16 50 4z m-337 -50 c12 0 31 -8 42 -17
l20 -16 -20 8 c-11 4 -30 9 -42 10 -31 4 -43 14 -43 33 1 16 1 16 11 0 5 -10
20 -18 32 -18z m1158 8 c36 2 37 1 52 -56 59 -216 51 -466 -24 -680 -84 -241
-262 -464 -470 -590 -35 -21 -37 -21 -53 -4 -9 10 -16 26 -16 34 0 9 -16 31
-35 49 -29 28 -32 35 -19 42 9 5 21 4 32 -5 15 -12 16 -11 3 5 -10 13 -11 21
-3 29 6 6 8 17 5 24 -3 8 0 14 6 14 7 0 14 -7 17 -15 3 -8 17 -14 30 -13 25 2
31 12 14 23 -5 3 -10 11 -10 17 0 7 4 7 13 1 14 -12 48 -13 41 -2 -2 5 -12 5
-20 2 -12 -4 -15 -1 -12 13 2 10 11 19 20 19 9 0 20 4 24 8 4 4 17 -1 28 -10
17 -14 16 -13 -2 8 l-23 27 22 16 c12 8 27 12 32 9 6 -4 7 -1 3 6 -5 7 0 21
10 32 17 18 17 20 -1 33 -14 10 -16 20 -11 50 5 25 11 34 19 29 9 -5 9 -3 1 8
-19 25 -23 57 -7 63 8 3 12 2 9 -3 -3 -4 1 -17 9 -27 8 -10 15 -14 15 -7 0 7
7 10 17 6 11 -4 14 -3 9 5 -9 16 7 15 22 0 28 -28 9 4 -22 38 -19 21 -33 41
-30 45 2 4 -5 14 -16 22 -20 14 -50 15 -82 2 -13 -5 -21 0 -29 19 -7 14 -16
26 -20 26 -5 0 -4 11 1 25 7 19 6 25 -4 25 -19 0 12 110 33 118 9 3 18 9 21
13 8 11 81 39 90 34 4 -3 7 3 6 12 0 9 5 18 13 21 8 2 11 0 8 -6 -8 -11 20
-38 30 -28 3 3 2 6 -3 6 -5 0 -10 9 -11 20 -1 11 3 20 8 20 6 0 8 4 4 9 -3 5
-1 12 5 16 5 3 10 11 10 17 0 6 -6 6 -15 -2 -13 -11 -14 -10 -10 3 4 8 1 18
-6 22 -8 6 -10 -2 -7 -29 2 -20 0 -36 -4 -36 -9 0 -11 51 -2 74 3 9 10 13 15
10 18 -11 8 37 -10 53 -19 16 -19 39 0 28 5 -3 6 1 3 9 -3 9 -1 16 6 16 6 0 8
5 4 12 -4 7 -3 8 5 4 6 -4 9 -11 7 -15 -8 -12 46 -59 81 -72 24 -8 30 -15 26
-27 -6 -14 -4 -15 9 -4 9 7 27 10 45 6 23 -4 32 -2 36 11 4 9 3 14 -3 10 -16
-10 -12 11 5 25 8 7 15 23 15 36 0 24 -31 64 -50 64 -16 0 -100 81 -100 96 0
7 5 16 12 20 8 5 9 2 5 -9 -4 -11 -1 -17 7 -17 9 0 12 7 9 19 -3 10 0 22 6 25
7 5 8 1 4 -11 -6 -15 -4 -16 9 -5 19 16 31 2 21 -24 -6 -16 -5 -17 9 -4 11 11
13 21 7 37 -7 18 -5 23 8 23 13 0 14 3 5 12 -7 7 -16 8 -25 2 -7 -5 -1 1 13
13 16 15 32 21 45 16 11 -3 36 -5 56 -5z m-1791 -18 c0 -5 -10 -10 -22 -9 -22
0 -22 1 -3 9 11 5 21 9 23 9 1 1 2 -3 2 -9z m547 -37 c-9 -9 -20 -13 -24 -9
-5 5 -2 11 5 13 6 3 12 12 12 21 0 12 3 13 12 4 10 -9 8 -16 -5 -29z m33 -9
c0 -8 -4 -12 -10 -9 -5 3 -10 10 -10 16 0 5 5 9 10 9 6 0 10 -7 10 -16z m-850
-15 c0 -5 4 -7 10 -4 6 4 7 -1 3 -11 -5 -13 -3 -16 10 -11 10 4 20 0 26 -11
10 -16 10 -16 11 1 0 9 2 17 4 17 2 0 13 3 23 6 17 5 17 5 1 -6 -15 -9 -16
-14 -6 -30 7 -10 16 -16 22 -13 5 3 6 1 2 -5 -4 -6 4 -16 16 -23 13 -7 27 -18
31 -26 5 -8 25 -26 46 -41 83 -60 105 -82 92 -95 -10 -9 -12 -9 -9 3 2 8 -3
14 -9 13 -7 -2 -13 2 -13 7 0 6 -7 10 -15 10 -9 0 -18 7 -21 15 -4 9 -14 14
-23 13 -9 -2 -15 2 -14 9 3 16 -56 65 -69 57 -6 -4 -8 -2 -4 4 3 6 -7 20 -23
31 -34 24 -49 27 -31 6 12 -14 -76 28 -94 46 -17 15 1 10 39 -12 20 -12 38
-19 41 -16 3 2 -16 17 -41 31 -48 29 -58 46 -25 46 11 0 20 -5 20 -11z m231
-120 c42 -35 105 -81 140 -101 35 -21 59 -38 54 -38 -13 -1 37 -40 50 -40 6 0
3 5 -5 10 -17 11 -10 13 14 4 9 -3 13 -10 10 -15 -3 -5 2 -6 11 -3 23 9 48
-15 34 -32 -18 -21 -56 -17 -81 10 -46 49 -110 96 -121 89 -7 -3 -9 -3 -5 2 7
7 -40 43 -57 45 -2 1 -18 14 -35 31 -16 17 -34 28 -39 25 -8 -5 -32 19 -81 81
-20 24 -10 36 13 16 12 -11 56 -49 98 -84z m732 30 c-5 -5 -17 -7 -27 -3 -15
6 -14 8 6 18 24 12 38 2 21 -15z m327 16 c23 -14 -35 -35 -111 -40 -65 -4
-120 8 -105 22 3 3 12 0 20 -6 12 -10 19 -8 36 9 11 11 24 19 28 16 4 -2 23
-1 42 3 40 9 71 8 90 -4z m145 -12 c-4 -16 -8 -40 -10 -56 -5 -36 -14 -49 -27
-41 -7 5 -8 2 -4 -5 10 -15 -23 -53 -37 -44 -6 3 -7 1 -3 -5 10 -16 -111 -72
-157 -72 -51 0 -44 23 9 31 83 12 141 54 93 67 -11 3 -11 1 1 -8 10 -8 11 -10
2 -8 -8 2 -14 8 -15 13 -1 15 34 19 43 5 5 -8 18 1 40 29 18 22 37 38 43 34 6
-3 7 -1 3 5 -3 6 -24 9 -47 7 -33 -3 -38 -1 -29 10 6 8 24 12 42 10 26 -4 32
0 41 25 14 38 21 39 12 3z m-722 -27 c4 -9 0 -13 -11 -11 -9 2 -20 4 -24 4 -5
1 -8 6 -8 11 0 15 37 12 43 -4z m749 -99 c-5 -18 -11 -24 -20 -18 -11 7 -10
11 3 25 9 9 12 16 6 16 -6 0 -8 7 -4 16 10 27 23 -8 15 -39z m-692 -23 c0 -2
-7 -4 -15 -4 -8 0 -15 4 -15 10 0 5 7 7 15 4 8 -4 15 -8 15 -10z m665 0 c19
-12 22 -18 12 -29 -14 -15 -31 -9 -21 7 4 6 2 8 -4 5 -5 -4 -17 -4 -26 -1 -13
5 -14 9 -5 20 14 17 15 17 44 -2z m-585 -14 c29 -29 25 -38 -17 -33 -47 6 -47
7 -33 32 13 26 25 26 50 1z m-465 -62 c5 -5 5 -8 -2 -8 -14 0 -73 52 -73 64 0
5 15 -3 33 -20 17 -16 36 -32 42 -36z m660 9 c29 -70 100 -98 198 -78 70 14
115 39 151 82 17 20 27 25 32 17 9 -14 -83 -101 -97 -92 -5 3 -9 0 -9 -7 0 -7
-3 -10 -6 -6 -4 3 -20 -1 -37 -10 -23 -11 -49 -14 -103 -11 -78 5 -84 -2 -37
-44 24 -22 118 -29 160 -11 36 15 53 17 53 6 0 -14 -84 -43 -123 -43 -27 0
-37 -4 -37 -16 0 -45 74 -58 148 -24 23 10 42 21 42 24 0 3 -18 4 -40 2 -22
-2 -40 1 -40 5 0 5 23 7 50 5 49 -3 52 -2 87 38 34 39 34 39 19 9 -9 -18 -21
-33 -26 -33 -6 0 -10 -5 -10 -11 0 -5 6 -7 13 -3 6 4 1 -5 -12 -19 -17 -19
-31 -25 -44 -21 -12 4 -17 2 -13 -4 9 -14 -24 -28 -72 -31 -27 -1 -41 -29 -21
-42 24 -15 53 -10 94 18 l40 26 -24 -26 c-13 -15 -45 -33 -70 -42 l-46 -15 45
5 45 4 -24 -19 c-30 -22 -63 -11 -80 27 -11 24 -36 57 -113 149 -21 25 -38 50
-38 55 0 6 -13 27 -29 47 -33 43 -66 122 -50 122 5 0 16 -15 24 -33z m-66 -7
c4 0 12 5 19 12 9 9 12 8 12 -4 0 -9 2 -23 5 -30 4 -9 -4 -19 -20 -26 -14 -7
-33 -28 -41 -48 l-15 -36 -25 23 c-14 13 -24 17 -24 10 0 -16 40 -50 60 -51
18 0 2 -16 -25 -24 -11 -3 -4 -4 16 -2 30 4 45 -3 98 -44 l62 -48 -24 -26
c-24 -26 -25 -26 -48 -7 -34 26 -73 45 -65 32 10 -16 -1 -14 -29 5 -14 9 -25
23 -25 31 0 9 -6 13 -14 10 -10 -4 -17 3 -21 23 -4 16 -4 33 -1 38 3 5 1 25
-5 46 -11 40 6 82 43 105 11 7 17 8 14 3 -3 -5 2 -9 12 -8 12 1 16 -6 14 -24
-1 -14 1 -20 5 -14 5 7 17 14 28 16 l20 5 -20 8 c-37 15 -45 25 -32 40 10 11
13 11 15 -1 2 -8 7 -14 11 -14z m-274 -10 l20 -25 -22 19 c-13 11 -23 24 -23
29 0 6 1 8 3 6 1 -2 11 -15 22 -29z m423 13 c32 -6 45 -23 17 -23 -27 0 -16
-19 18 -29 l32 -9 -33 -1 c-39 -1 -87 29 -95 60 -4 16 -2 19 11 14 9 -4 32 -9
50 -12z m252 11 c0 -3 -6 -11 -12 -17 -20 -19 -68 -48 -68 -42 0 12 23 50 34
57 13 9 46 10 46 2z m89 -15 c-5 -10 -14 -21 -20 -25 -6 -3 -8 -16 -5 -29 5
-18 -2 -30 -29 -54 -37 -32 -55 -39 -55 -20 0 5 5 7 10 4 6 -3 10 -1 10 5 0 6
5 8 10 5 6 -3 10 -1 10 4 0 15 -5 14 -52 -10 -22 -11 -49 -18 -59 -16 -11 3
-17 2 -14 -3 5 -7 -9 -9 -80 -9 -16 0 -37 6 -45 14 -13 13 -11 15 15 16 54 0
120 11 131 20 7 6 16 9 20 7 17 -4 54 13 49 23 -3 5 0 6 8 3 8 -3 18 0 23 7 5
8 3 10 -7 4 -8 -4 0 7 16 26 37 42 42 46 60 46 10 0 11 -5 4 -18z m253 3 c20
-20 -3 -34 -46 -29 -36 5 -38 5 -13 -4 40 -16 24 -28 -25 -19 -33 6 -45 5 -53
-7 -15 -20 -66 -27 -58 -7 3 8 0 14 -7 14 -7 0 -10 7 -6 18 6 16 5 16 -8 0
-20 -27 -26 -22 -13 12 11 29 13 30 75 29 34 -1 65 1 68 4 9 9 74 1 86 -11z
m-429 -24 c-13 -23 -28 -34 -47 -36 -24 -3 -26 -2 -15 11 10 11 18 12 27 5 6
-6 12 -8 12 -5 0 3 3 14 7 24 6 16 5 16 -10 4 -9 -7 -17 -10 -17 -6 0 4 -7 2
-15 -5 -9 -7 -18 -10 -22 -6 -3 3 -1 6 6 6 7 0 9 5 5 13 -4 6 -4 9 0 5 4 -3
22 0 39 7 47 21 51 18 30 -17z m-680 15 c-18 -7 19 -75 53 -97 25 -17 36 -18
122 -3 12 2 22 0 22 -6 0 -5 -9 -7 -19 -4 -37 9 -44 -7 -22 -49 17 -32 20 -35
18 -14 -1 14 -6 31 -11 39 -6 9 -5 12 5 9 8 -3 14 -11 14 -19 0 -8 3 -16 6
-19 3 -3 18 -31 33 -62 21 -44 80 -112 237 -277 210 -219 277 -280 357 -321
23 -12 44 -26 47 -31 3 -4 11 -6 18 -4 7 3 21 -7 31 -22 17 -24 17 -25 1 -16
-14 8 -28 4 -60 -18 -56 -38 -100 -38 -62 0 6 7 8 12 2 11 -26 -5 -27 2 -4 27
22 26 22 26 1 9 -22 -19 -23 -19 -43 2 -11 12 -17 27 -14 32 3 6 -1 7 -9 4 -9
-3 -13 -11 -9 -17 3 -6 1 -7 -5 -3 -6 4 -9 13 -6 21 3 8 -11 30 -33 51 -21 20
-38 44 -38 52 0 8 -7 17 -15 19 -13 4 -13 3 0 -6 8 -6 10 -11 4 -11 -16 0 -75
65 -67 74 10 10 -76 88 -88 81 -5 -4 -7 -11 -3 -16 3 -5 10 -6 16 -3 7 5 8 2
3 -6 -6 -9 -4 -11 6 -6 8 4 6 1 -4 -7 -10 -8 -14 -18 -9 -21 6 -3 13 2 16 11
5 12 9 14 18 5 7 -7 13 -17 14 -24 1 -7 5 -21 10 -32 5 -14 3 -17 -7 -14 -8 3
-14 13 -14 23 0 10 -5 20 -12 22 -16 6 -10 -23 10 -45 18 -20 23 -37 8 -27 -5
3 -13 0 -17 -6 -4 -8 -3 -9 4 -5 8 4 12 0 12 -11 1 -16 2 -17 13 -2 11 15 15
15 31 3 18 -12 18 -14 2 -20 -9 -4 -32 -4 -51 -1 -26 4 -35 2 -35 -9 0 -19
-16 -18 -24 1 -3 8 -2 15 3 15 4 0 8 6 8 13 3 51 9 77 17 77 5 0 -1 12 -15 27
-13 14 -18 23 -11 19 6 -4 12 -2 12 3 0 6 -4 11 -9 11 -17 0 -23 -20 -11 -35
7 -9 8 -15 0 -20 -5 -3 -10 -11 -10 -16 0 -6 4 -8 8 -5 4 2 8 -5 9 -17 0 -12
-1 -16 -4 -9 -8 20 -25 14 -18 -7 3 -11 -1 -25 -10 -34 -18 -19 -20 -47 -2
-47 6 0 1 -9 -13 -20 -14 -10 -21 -22 -17 -26 4 -4 1 -17 -6 -28 -19 -31 -20
-81 -2 -115 12 -25 13 -36 4 -52 -9 -17 -13 -19 -20 -8 -8 12 -11 12 -19 -1
-6 -10 -10 -11 -10 -3 0 7 -6 10 -14 7 -32 -12 -74 65 -49 90 4 3 6 48 4 99
-3 100 5 130 46 182 23 28 31 32 58 28 18 -3 35 -1 38 4 3 5 -6 10 -20 11 -13
1 -32 7 -41 13 -15 9 -15 10 2 5 16 -6 17 -4 5 10 -12 15 -14 14 -23 -5 -12
-27 -30 -27 -53 2 -10 12 -28 27 -38 33 -16 9 -20 22 -19 55 2 44 2 44 -11 15
-16 -37 -29 -18 -21 32 5 34 5 35 -5 9 -15 -39 -31 -22 -25 27 4 29 3 35 -3
21 -15 -32 -13 -75 4 -81 8 -4 15 -10 15 -14 0 -16 45 -79 56 -80 13 0 74 -57
74 -69 0 -4 -9 -16 -20 -26 -11 -10 -20 -14 -20 -10 0 5 -5 4 -12 -3 -17 -17
-48 13 -48 47 0 14 -9 45 -20 69 -21 46 -41 53 -73 25 -19 -18 -20 -17 -8 7
11 24 11 24 -3 6 -9 -11 -16 -26 -16 -34 0 -32 81 -121 111 -122 24 0 45 -28
32 -41 -15 -15 -42 -4 -82 31 -19 17 -40 29 -46 26 -7 -2 -10 6 -7 24 3 20 -3
35 -19 51 -34 34 -34 78 0 151 41 86 65 112 90 99 10 -6 69 -67 131 -136 61
-69 116 -125 120 -125 5 0 12 5 16 12 5 7 3 8 -6 3 -9 -6 -11 -4 -5 5 5 8 4
11 -2 7 -5 -3 -27 13 -49 36 l-39 42 43 -40 c62 -58 51 -28 -14 35 -30 30 -52
46 -48 36 5 -14 4 -17 -5 -12 -7 5 -10 15 -6 24 3 9 -7 28 -27 49 -17 18 -28
33 -22 32 5 0 36 -31 69 -69 33 -38 63 -64 66 -58 4 7 9 7 13 -1 4 -6 2 -11
-5 -11 -8 0 -8 -4 1 -15 11 -13 15 -13 23 -3 6 10 7 9 4 -4 -7 -21 18 -45 28
-27 4 6 4 14 -1 18 -5 3 -31 31 -59 61 -27 30 -61 63 -75 72 -14 10 -22 18
-19 18 4 0 -10 19 -31 41 -26 28 -42 39 -51 34 -8 -5 -11 -4 -6 0 12 14 -44
64 -80 71 -39 7 -39 30 0 26 34 -3 44 16 12 24 -26 6 -46 31 -44 56 0 7 4 4 8
-6 7 -17 8 -17 14 -3 7 19 -29 35 -45 19 -25 -25 -80 27 -99 91 -9 32 -5 47
14 46 9 0 9 -2 0 -6z m584 -9 c-3 -3 -12 -4 -19 -1 -8 3 -5 6 6 6 11 1 17 -2
13 -5z m273 -25 c-7 -11 -14 -18 -17 -15 -3 3 0 12 7 21 18 21 23 19 10 -6z
m-976 -40 c-3 -6 -12 -5 -22 3 -42 32 -43 57 -2 28 17 -12 28 -26 24 -31z
m-559 31 c-4 -6 -1 -17 5 -25 9 -11 9 -15 1 -15 -6 0 -11 5 -11 11 0 5 -4 8
-9 5 -5 -3 -12 1 -15 10 -3 8 -2 12 3 9 5 -3 12 -1 16 5 3 5 8 10 11 10 3 0 2
-5 -1 -10z m28 -7 c-5 -12 -3 -14 7 -8 9 6 11 4 5 -4 -5 -9 -11 -9 -17 -3 -6
6 -7 15 -4 21 11 17 16 13 9 -6z m607 -8 c7 -9 13 -29 12 -44 0 -17 8 -37 19
-47 18 -17 18 -17 -4 -38 -12 -12 -41 -42 -64 -68 -23 -25 -47 -49 -55 -53 -7
-4 -5 0 4 10 15 17 16 20 2 30 -17 12 -77 8 -69 -5 2 -4 -7 -5 -20 -2 -33 6
-24 18 19 25 37 6 106 61 106 84 0 7 5 13 10 13 15 0 12 -26 -5 -40 -8 -7 -12
-16 -9 -22 3 -5 11 -4 19 2 8 7 20 8 26 4 7 -4 9 -3 6 3 -4 6 0 16 8 23 8 7
15 18 15 24 0 6 -5 3 -11 -6 -5 -10 -14 -18 -19 -18 -5 0 -9 8 -9 18 -1 9 -1
24 -2 32 -1 8 2 28 6 44 6 21 5 27 -4 22 -6 -4 -12 -17 -12 -29 -1 -16 -3 -17
-6 -5 -2 10 -10 15 -19 11 -19 -7 -18 6 3 29 20 22 36 23 53 3z m495 -37 c16
-24 36 -55 46 -69 19 -29 16 -41 -8 -32 -9 4 -11 8 -4 12 6 4 2 12 -10 19 -19
12 -20 11 -14 -10 l7 -23 -17 23 c-9 12 -21 20 -26 17 -5 -4 -9 -2 -9 4 0 6
-7 8 -15 5 -9 -4 -15 0 -15 10 0 10 -6 13 -15 10 -11 -5 -13 -2 -8 12 4 12 3
15 -5 10 -8 -5 -10 -1 -5 11 20 58 60 58 98 1z m445 32 c0 -5 -5 -10 -11 -10
-5 0 -7 5 -4 10 3 6 8 10 11 10 2 0 4 -4 4 -10z m-661 -79 c0 -10 -2 -12 -6
-3 -2 6 -8 10 -12 8 -4 -3 -8 4 -8 15 -2 17 1 18 13 9 8 -7 14 -20 13 -29z
m-227 4 c10 -13 22 -24 26 -22 4 1 8 -2 10 -8 5 -22 -22 -8 -45 23 -14 17 -22
32 -18 32 4 0 16 -11 27 -25z m225 -57 c-3 -7 -5 -2 -5 12 0 14 2 19 5 13 2
-7 2 -19 0 -25z m-187 -10 c0 -5 -13 -8 -30 -8 -16 0 -30 4 -30 9 0 4 13 8 30
7 16 -1 30 -4 30 -8z m498 -23 c-3 -3 -9 2 -12 12 -6 14 -5 15 5 6 7 -7 10
-15 7 -18z m-478 -25 c0 -6 -11 -33 -25 -61 -13 -29 -22 -56 -19 -60 3 -5 -1
-6 -8 -4 -9 4 -20 -12 -32 -49 -20 -58 -36 -68 -28 -17 2 16 -1 37 -7 48 -10
16 -11 15 -5 -7 3 -14 3 -22 -1 -18 -14 13 -17 118 -4 134 6 8 8 14 3 14 -4 0
1 7 12 15 21 16 114 20 114 5z m260 -38 c0 -10 4 -10 16 2 23 23 34 20 45 -14
6 -16 16 -30 21 -30 6 0 4 7 -3 17 -13 15 -12 15 10 4 18 -10 22 -19 19 -41
-2 -16 -1 -27 4 -24 4 3 8 13 8 22 0 29 17 49 31 35 16 -16 22 -86 6 -76 -7 4
-6 -2 3 -13 22 -29 24 -30 17 -11 -4 11 -3 16 3 12 6 -3 10 -17 10 -30 0 -13
5 -27 10 -30 6 -4 10 10 10 36 0 23 3 39 7 35 9 -9 15 -35 14 -68 -1 -15 2
-29 7 -32 4 -2 8 18 9 45 1 39 -3 52 -19 63 -11 8 -17 19 -14 24 3 6 -5 19
-19 30 l-25 20 24 0 c17 0 23 -5 19 -14 -3 -8 0 -14 6 -14 7 0 11 -6 9 -14 -2
-8 2 -14 7 -13 6 1 9 6 7 10 -1 5 2 6 8 2 6 -3 8 -11 5 -16 -4 -5 0 -9 7 -10
10 0 11 -2 0 -6 -10 -4 -10 -8 -1 -19 9 -11 9 -14 0 -14 -7 0 -9 -5 -4 -12 9
-15 10 -20 12 -50 2 -46 14 -5 16 61 2 43 -2 79 -10 95 -8 14 -11 26 -8 26 3
0 0 7 -7 15 -9 11 -16 13 -24 5 -5 -5 -15 -10 -21 -10 -5 0 -2 5 8 11 9 6 14
16 11 22 -4 7 5 1 20 -13 15 -15 31 -46 38 -77 8 -35 18 -53 30 -57 25 -6 51
-72 44 -110 -4 -17 -7 -37 -8 -44 -2 -18 -67 -74 -81 -69 -26 8 -9 52 23 59
32 6 56 68 28 68 -9 0 -10 3 -2 8 8 5 6 19 -7 47 -14 33 -17 36 -17 15 1 -14
0 -46 -1 -72 -1 -44 -3 -47 -37 -58 -26 -9 -33 -15 -23 -21 7 -4 11 -10 8 -14
-3 -3 -28 18 -54 47 -27 29 -87 94 -135 143 -112 116 -134 146 -119 156 15 9
58 -20 59 -39z m-580 29 c0 -5 -9 -11 -20 -14 -11 -3 -20 -1 -20 3 0 5 8 11
18 13 9 3 18 5 20 6 1 0 2 -3 2 -8z m-90 -37 c0 -2 -7 -4 -15 -4 -8 0 -15 4
-15 10 0 5 7 7 15 4 8 -4 15 -8 15 -10z m37 10 c-3 -3 -12 -4 -19 -1 -8 3 -5
6 6 6 11 1 17 -2 13 -5z m143 -14 c-14 -11 -30 -20 -37 -20 -6 0 -20 -3 -30
-6 -13 -5 -11 -2 5 11 19 14 60 31 82 34 3 0 -6 -8 -20 -19z m339 -7 c20 -16
41 -28 46 -28 6 0 10 -5 10 -12 0 -6 4 -15 9 -20 5 -5 6 -3 2 5 -4 6 -2 12 4
12 7 0 10 -7 6 -15 -3 -9 8 -31 26 -53 17 -20 -3 -3 -44 38 -41 41 -84 80 -94
87 -10 6 -15 12 -10 12 5 1 25 -11 45 -26z m-85 -9 c4 -10 0 -18 -13 -21 -19
-5 -19 -33 1 -33 5 0 6 5 2 12 -5 7 -3 8 6 3 11 -7 10 -10 -1 -19 -8 -6 -14
-17 -15 -23 -2 -28 -5 -33 -16 -33 -9 0 -9 3 0 12 17 17 15 33 -3 18 -13 -11
-14 -10 -9 4 3 9 10 16 16 16 5 0 6 5 3 10 -4 6 -11 7 -17 4 -6 -4 -6 2 1 15
7 11 19 21 28 21 13 0 13 3 3 15 -7 9 -8 15 -2 15 5 0 13 -7 16 -16z m-359 -4
c8 -13 -5 -13 -25 0 -13 8 -13 10 2 10 9 0 20 -4 23 -10z m842 -12 c-3 -8 -6
-5 -6 6 -1 11 2 17 5 13 3 -3 4 -12 1 -19z m559 -26 c-4 -3 -14 2 -24 12 -16
18 -16 18 6 6 13 -6 21 -14 18 -18z m-1516 -34 c28 -30 25 -47 -3 -20 -25 24
-43 29 -31 10 4 -7 3 -8 -4 -4 -12 7 -5 36 9 36 4 0 17 -10 29 -22z m1424 -29
c-8 -13 -21 -11 -27 5 -4 10 0 12 14 9 10 -3 16 -9 13 -14z m41 1 c-3 -5 -11
-10 -16 -10 -6 0 -7 5 -4 10 3 6 11 10 16 10 6 0 7 -4 4 -10z m70 0 c3 -5 1
-10 -4 -10 -6 0 -11 5 -11 10 0 6 2 10 4 10 3 0 8 -4 11 -10z m-1551 -8 c-5
-4 -12 -11 -15 -15 -3 -5 -9 -2 -12 5 -3 9 3 14 15 15 11 1 16 -1 12 -5z m445
-32 c0 -10 -3 -8 -9 5 -12 27 -12 43 0 25 5 -8 9 -22 9 -30z m1051 5 c0 -8 -2
-15 -4 -15 -2 0 -6 7 -10 15 -3 8 -1 15 4 15 6 0 10 -7 10 -15z m-1080 -21
c-1 -4 3 -10 9 -14 8 -4 5 -15 -9 -33 -13 -16 -17 -27 -10 -27 10 0 9 -4 0
-15 -10 -12 -10 -15 1 -15 9 0 10 -3 2 -11 -8 -8 -18 -6 -37 6 -24 16 -26 16
-26 1 0 -10 5 -14 10 -11 6 4 17 2 24 -4 7 -6 22 -8 32 -5 11 4 16 3 11 -1 -9
-10 -77 -14 -77 -4 0 4 -9 9 -19 12 -28 7 -21 49 13 77 27 22 28 23 17 2 -6
-11 -16 -24 -21 -27 -6 -3 -10 -16 -10 -28 1 -20 2 -20 16 6 8 15 19 25 25 21
10 -6 49 31 49 46 0 5 -7 11 -16 14 -12 5 -13 8 -2 20 12 13 22 7 18 -10z
m-390 -18 c0 -2 -7 -6 -15 -10 -8 -3 -15 -1 -15 4 0 6 7 10 15 10 8 0 15 -2
15 -4z m370 -17 c0 -5 -4 -9 -8 -9 -5 0 -9 7 -9 15 0 8 4 12 9 9 4 -3 8 -9 8
-15z m144 -43 c-3 -9 -10 -16 -15 -16 -5 0 -4 9 3 20 14 22 21 20 12 -4z
m-254 -31 c0 -8 -3 -16 -7 -18 -5 -3 -8 5 -8 18 0 13 3 21 8 18 4 -2 7 -10 7
-18z m1220 8 c-1 -5 -7 -19 -15 -33 -10 -18 -14 -20 -15 -8 0 23 11 48 21 48
5 0 9 -3 9 -7z m-943 -25 c-3 -8 -6 -5 -6 6 -1 11 2 17 5 13 3 -3 4 -12 1 -19z
m33 6 c0 -8 -5 -12 -10 -9 -6 4 -8 11 -5 16 9 14 15 11 15 -7z m-423 -10 c-3
-3 -12 -4 -19 -1 -8 3 -5 6 6 6 11 1 17 -2 13 -5z m313 -14 c0 -5 -5 -10 -11
-10 -5 0 -7 5 -4 10 3 6 8 10 11 10 2 0 4 -4 4 -10z m-211 -17 c-12 -14 -12
-16 1 -11 39 14 65 19 51 10 -18 -13 -5 -32 22 -32 14 0 18 -3 10 -8 -8 -5 -2
-12 18 -21 41 -18 33 -22 -19 -8 -31 8 -42 16 -42 30 0 16 -5 19 -30 13 -23
-4 -29 -3 -23 7 4 6 -5 4 -19 -5 -22 -15 -27 -15 -32 -3 -3 8 -10 15 -16 15
-6 0 -8 -6 -4 -12 5 -10 4 -10 -6 -1 -7 6 -9 16 -5 23 5 8 13 6 26 -6 19 -17
21 -17 47 4 33 26 39 27 21 5z m781 -5 c0 -4 -5 -8 -11 -8 -8 0 -7 -5 2 -16 8
-10 15 -12 17 -5 2 6 14 11 26 11 13 0 26 3 30 8 12 11 124 9 119 -3 -4 -12
-63 -13 -80 -2 -13 8 -43 -1 -43 -12 0 -4 11 -13 25 -19 14 -6 25 -8 25 -3 0
5 -6 11 -12 14 -11 3 45 2 75 -2 20 -2 -5 -18 -25 -16 -13 1 -15 0 -5 -2 9 -2
17 -11 17 -19 0 -16 -12 -18 -26 -4 -12 12 -51 14 -80 5 -16 -5 -30 2 -57 30
-20 21 -35 41 -32 45 6 10 35 8 35 -2z m45 2 c-3 -5 -12 -7 -20 -3 -21 7 -19
13 6 13 11 0 18 -4 14 -10z m-630 -19 c-3 -6 -11 -11 -17 -11 -6 0 -6 6 2 15
14 17 26 13 15 -4z m132 13 c-3 -3 -12 -4 -19 -1 -8 3 -5 6 6 6 11 1 17 -2 13
-5z m692 -9 c16 -8 32 -11 36 -7 5 4 5 1 1 -5 -6 -10 -14 -9 -39 3 -36 19 -44
24 -33 24 4 0 20 -7 35 -15z m-996 -24 c19 -2 4 -21 -17 -21 -14 0 -28 -5 -32
-11 -4 -8 -9 -7 -15 2 -6 10 -9 11 -9 2 0 -15 -36 -18 -44 -4 -3 5 1 14 9 21
9 8 15 8 15 2 0 -6 -6 -13 -12 -15 -9 -4 -8 -6 2 -6 8 -1 21 8 27 18 9 14 21
19 40 16 15 -2 31 -4 36 -4z m1087 -1 c9 -6 10 -10 3 -10 -6 0 -18 -2 -26 -5
-8 -4 -14 0 -14 10 0 17 15 19 37 5z m-1220 -10 c0 -5 -2 -10 -4 -10 -3 0 -8
5 -11 10 -3 6 -1 10 4 10 6 0 11 -4 11 -10z m501 -27 c-10 -17 -10 -16 -11 3
0 23 13 41 18 25 2 -6 -1 -18 -7 -28z m310 10 l24 -26 -27 19 c-15 10 -28 22
-28 27 0 12 5 8 31 -20z m359 6 c0 -5 -5 -9 -11 -9 -5 0 -8 -4 -5 -9 4 -5 -10
-4 -29 2 -40 12 -45 24 -12 29 29 5 57 -2 57 -13z m-76 -14 c16 -12 17 -16 3
-29 -13 -13 -17 -13 -33 -1 -11 8 -14 15 -7 15 7 0 10 7 7 15 -8 19 5 19 30 0z
m-763 -62 c8 -9 17 -10 29 -3 13 7 19 6 23 -5 5 -10 -1 -13 -24 -10 -31 4 -41
-10 -11 -19 29 -8 77 -2 75 10 -1 6 4 11 12 11 20 0 -3 -33 -32 -46 -69 -32
-154 20 -152 91 l0 23 9 -22 c5 -13 16 -23 25 -23 9 0 18 -7 21 -15 4 -8 10
-12 15 -9 5 2 3 13 -3 24 -7 10 -15 17 -19 14 -4 -2 -5 6 -1 18 5 21 5 21 14
-2 5 -13 14 -30 19 -37z m44 47 c3 -5 3 -10 -2 -11 -4 0 -16 -2 -25 -4 -10 -2
-18 3 -18 11 0 16 36 19 45 4z m30 0 c3 -5 1 -10 -4 -10 -6 0 -11 5 -11 10 0
6 2 10 4 10 3 0 8 -4 11 -10z m801 -27 c-4 -4 -11 -1 -16 7 -16 25 -11 35 7
17 9 -9 13 -20 9 -24z m-201 17 c3 -5 2 -10 -4 -10 -5 0 -13 5 -16 10 -3 6 -2
10 4 10 5 0 13 -4 16 -10z m-954 -33 c13 -4 17 -10 12 -23 -6 -15 -8 -15 -25
6 -10 12 -17 30 -17 39 1 15 2 15 6 0 2 -10 13 -19 24 -22z m93 8 c17 -16 22
-25 13 -25 -9 0 -14 -10 -14 -25 0 -14 5 -25 13 -25 7 0 19 -7 28 -15 8 -8 17
-11 20 -6 8 12 59 0 74 -18 8 -9 11 -11 8 -4 -4 7 1 11 14 10 11 -1 20 -5 20
-9 0 -4 11 -8 25 -8 26 0 34 -15 13 -23 -7 -2 -1 -2 15 0 17 3 27 0 27 -7 0
-8 10 -10 25 -8 14 3 25 1 25 -3 0 -5 -7 -9 -15 -9 -8 0 -15 -4 -15 -10 0 -15
12 -12 38 10 27 22 21 46 -7 31 -10 -6 -23 -6 -32 0 -12 7 -12 9 1 9 12 0 12
2 2 9 -10 6 -10 10 3 21 13 11 16 11 13 0 -2 -8 6 -15 17 -17 16 -3 17 -2 5 6
-12 9 -9 11 15 11 22 0 26 -3 17 -12 -8 -8 -9 -15 -1 -25 8 -9 8 -17 -1 -28
-6 -8 -9 -19 -5 -25 3 -5 1 -10 -5 -10 -7 0 -5 -7 4 -16 9 -8 16 -21 16 -29 0
-7 11 -16 25 -19 14 -4 25 -10 25 -15 0 -5 21 -4 48 1 26 6 58 10 72 10 14 0
18 2 8 5 -9 2 -19 11 -22 18 -3 8 -2 14 2 13 16 -4 112 25 112 34 0 5 4 7 10
3 5 -3 7 -12 3 -20 -3 -9 1 -15 10 -15 8 0 21 -7 28 -16 11 -14 10 -19 -10
-35 -18 -15 -19 -19 -7 -19 9 0 16 5 16 10 0 7 6 7 19 0 11 -5 27 -7 35 -4 9
3 16 2 16 -3 0 -18 -144 -36 -270 -35 -83 0 -158 7 -223 21 l-98 20 -69 69
c-39 39 -70 77 -70 85 0 24 -50 77 -72 77 -23 0 -22 30 2 38 13 5 13 3 1 -12
-12 -14 -12 -16 3 -10 9 3 16 1 16 -6 0 -6 5 -8 10 -5 6 4 4 12 -5 22 -11 10
-13 19 -6 27 7 9 7 16 -1 24 -24 24 9 12 36 -13z m26 15 c0 -5 -2 -10 -4 -10
-3 0 -8 5 -11 10 -3 6 -1 10 4 10 6 0 11 -4 11 -10z m57 -22 c-3 -7 -5 -2 -5
12 0 14 2 19 5 13 2 -7 2 -19 0 -25z m917 0 c-10 -16 -22 -7 -17 13 4 15 8 17
14 8 4 -7 5 -17 3 -21z m-668 -33 c-17 -15 -21 -25 -13 -28 7 -2 9 -8 4 -12
-4 -5 -12 -4 -18 2 -9 9 -5 19 12 41 13 16 28 27 32 25 4 -3 -3 -15 -17 -28z
m291 29 c-3 -3 -12 -4 -19 -1 -8 3 -5 6 6 6 11 1 17 -2 13 -5z m137 -23 c-2
-3 -12 3 -22 13 -16 17 -16 18 5 5 12 -7 20 -15 17 -18z m-228 -6 c-23 -24
-20 -38 7 -24 20 11 21 11 9 -4 -17 -20 -4 -47 34 -72 21 -14 24 -19 13 -27
-11 -8 -10 -9 3 -4 25 8 30 -8 9 -26 -14 -12 -22 -13 -30 -5 -7 7 -11 8 -11 0
0 -16 -42 -4 -73 21 -28 23 -28 23 -12 61 8 22 13 46 10 54 -3 9 -3 12 1 9 4
-4 16 4 26 18 11 14 23 23 25 20 3 -3 -2 -12 -11 -21z m79 -14 c22 -19 30 -33
24 -40 -6 -8 -5 -8 3 -1 7 6 20 10 30 10 12 0 16 5 12 18 -5 14 -4 14 4 2 6
-8 9 -17 6 -21 -2 -4 4 -10 13 -12 111 -30 116 -32 143 -72 14 -22 29 -48 33
-57 4 -10 17 -18 29 -18 22 -1 22 -1 -3 -15 -24 -13 -31 -12 -68 8 -22 12 -41
28 -41 35 0 7 -4 11 -9 7 -5 -3 -12 -1 -16 4 -3 5 -14 8 -25 6 -11 -2 -20 0
-20 5 0 5 -6 7 -14 4 -8 -3 -17 0 -21 5 -3 6 -11 9 -16 6 -5 -4 -9 -1 -9 6 0
9 -3 10 -10 3 -7 -7 -25 3 -56 32 l-46 41 17 33 c16 30 16 32 0 27 -9 -4 -14
-3 -10 3 9 15 14 13 50 -19z m-495 -3 c9 -20 9 -21 -2 -7 -7 9 -20 18 -28 22
-12 4 -12 6 2 6 10 1 22 -9 28 -21z m567 16 c-3 -3 -12 -4 -19 -1 -8 3 -5 6 6
6 11 1 17 -2 13 -5z m248 -12 c-3 -3 -11 0 -18 7 -9 10 -8 11 6 5 10 -3 15 -9
12 -12z m-165 -17 c0 -2 -10 -9 -22 -15 -22 -11 -22 -10 -4 4 21 17 26 19 26
11z m31 -32 c13 -15 12 -15 -8 -4 -24 12 -29 21 -14 21 5 0 15 -7 22 -17z
m-541 -7 c0 -3 -4 -8 -10 -11 -5 -3 -10 -1 -10 4 0 6 5 11 10 11 6 0 10 -2 10
-4z m752 -55 c-7 -4 -8 -12 -1 -21 7 -13 10 -13 18 -1 6 9 11 10 15 2 4 -6
-11 -19 -34 -31 l-40 -20 2 27 c1 16 7 31 13 35 6 5 5 8 -3 8 -7 0 -17 -11
-22 -24 -11 -29 -26 -40 -35 -26 -3 5 -1 10 5 10 6 0 10 6 8 14 -2 7 8 23 22
34 19 15 29 18 44 10 12 -6 15 -13 8 -17z m-112 -31 c0 -5 -2 -10 -4 -10 -3 0
-8 5 -11 10 -3 6 -1 10 4 10 6 0 11 -4 11 -10z m-80 -73 c0 -5 7 -7 15 -4 8 4
17 2 20 -2 13 -23 -34 -13 -60 12 l-29 28 27 -12 c15 -7 27 -16 27 -22z m-30
-27 c0 -5 -5 -10 -11 -10 -5 0 -7 5 -4 10 3 6 8 10 11 10 2 0 4 -4 4 -10z"/>
<path d="M1426 2238 c-12 -16 -13 -25 -4 -35 6 -7 8 -16 5 -20 -8 -7 11 -43
22 -43 5 0 11 7 14 14 4 10 1 13 -9 9 -7 -3 -14 -1 -14 5 0 5 7 13 16 16 8 3
12 10 9 16 -3 6 0 7 9 4 8 -3 18 -14 21 -25 9 -29 25 -13 25 25 0 25 -6 35
-25 44 -37 17 -52 15 -69 -10z"/>
<path d="M1546 2203 c-6 -14 -5 -15 5 -6 7 7 10 15 7 18 -3 3 -9 -2 -12 -12z"/>
<path d="M1590 2202 c-22 -7 -30 -23 -30 -60 0 -25 6 -35 25 -44 14 -6 25 -15
25 -20 0 -12 34 -10 48 4 18 18 14 48 -10 85 -25 36 -36 42 -58 35z m20 -20
c0 -5 9 -18 20 -30 12 -13 16 -23 9 -27 -7 -5 -7 -11 1 -20 20 -24 -9 -27 -38
-4 -15 13 -19 19 -9 16 25 -9 32 17 13 45 -16 22 -16 22 -16 1 0 -12 6 -23 13
-26 6 -3 2 -4 -10 -4 -13 1 -23 2 -23 3 0 2 4 14 10 28 9 24 30 36 30 18z"/>
<path d="M1768 2203 c10 -4 8 -12 -10 -32 l-23 -26 27 24 c27 23 29 42 5 40
-8 0 -8 -2 1 -6z"/>
<path d="M1771 2146 c-9 -11 -9 -16 0 -22 7 -4 9 -3 5 4 -3 5 0 12 6 15 7 2
10 7 7 11 -3 4 -12 0 -18 -8z"/>
<path d="M1485 2126 c-29 -29 -29 -49 0 -54 10 -3 15 0 11 7 -5 7 -1 8 10 4
14 -5 13 -8 -7 -19 -24 -13 -24 -13 -2 -14 27 0 38 16 35 55 -4 45 -17 51 -47
21z"/>
<path d="M1560 2059 c0 -5 5 -7 10 -4 6 3 10 8 10 11 0 2 -4 4 -10 4 -5 0 -10
-5 -10 -11z"/>
<path d="M1758 2035 c2 -14 6 -25 8 -25 2 0 4 11 4 25 0 14 -4 25 -9 25 -4 0
-6 -11 -3 -25z"/>
<path d="M1885 1910 c3 -5 8 -10 11 -10 2 0 4 5 4 10 0 6 -5 10 -11 10 -5 0
-7 -4 -4 -10z"/>
<path d="M1030 1841 c0 -4 11 -6 25 -3 14 2 25 6 25 8 0 2 -11 4 -25 4 -14 0
-25 -4 -25 -9z"/>
<path d="M378 1713 c6 -2 18 -2 25 0 6 3 1 5 -13 5 -14 0 -19 -2 -12 -5z"/>
<path d="M453 1693 c-12 -2 -24 -11 -27 -19 -4 -10 -2 -14 6 -10 7 3 21 9 31
12 9 4 17 10 17 15 0 5 -1 8 -2 8 -2 -1 -13 -4 -25 -6z"/>
<path d="M1726 1762 c-3 -6 -1 -14 5 -17 15 -10 25 3 12 16 -7 7 -13 7 -17 1z"/>
<path d="M1635 1732 c9 -17 -48 -72 -75 -72 -13 0 -19 -4 -14 -11 4 -8 1 -8
-13 -1 -24 13 -83 1 -97 -20 -6 -9 -7 -20 -4 -23 10 -10 79 -15 73 -5 -10 16
12 19 31 5 10 -8 26 -14 34 -14 10 0 8 3 -5 8 -19 8 -19 8 4 20 17 9 26 10 34
2 6 -6 16 -11 22 -11 5 1 0 9 -12 19 -21 18 -17 51 6 37 6 -4 9 -12 6 -17 -4
-5 1 -9 10 -9 11 0 15 5 11 15 -3 9 1 18 9 21 20 8 19 17 -6 45 -11 13 -18 18
-14 11z m10 -52 c-3 -5 -11 -10 -16 -10 -6 0 -7 5 -4 10 3 6 11 10 16 10 6 0
7 -4 4 -10z m-175 -60 c0 -5 5 -10 11 -10 5 0 7 5 3 12 -5 7 -3 8 5 3 9 -5 10
-10 2 -18 -8 -8 -16 -6 -28 6 -11 11 -13 17 -5 17 7 0 12 -4 12 -10z"/>
<path d="M1400 1681 c0 -5 5 -13 10 -16 6 -3 10 -2 10 4 0 5 -4 13 -10 16 -5
3 -10 2 -10 -4z"/>
<path d="M1086 1667 c-15 -11 -17 -21 -11 -59 6 -40 65 -151 65 -122 0 17 55
22 89 8 27 -12 29 -15 21 -43 -4 -17 -11 -35 -14 -40 -7 -11 17 -21 49 -21 32
0 46 21 39 59 -5 23 -13 33 -33 37 -81 18 -139 68 -169 147 -16 43 -20 46 -36
34z m34 -67 c0 -5 -7 -10 -15 -10 -8 0 -15 5 -15 10 0 6 7 10 15 10 8 0 15 -4
15 -10z m20 -24 c0 -2 3 -12 7 -22 4 -12 3 -15 -5 -10 -7 4 -12 2 -12 -4 0 -6
-5 -8 -11 -4 -8 4 -7 9 2 15 13 8 5 13 -13 10 -5 0 -8 4 -8 9 0 6 9 10 20 10
11 0 20 -2 20 -4z m121 -169 c-10 -9 -11 -8 -5 6 3 10 9 15 12 12 3 -3 0 -11
-7 -18z"/>
<path d="M1580 1616 c0 -2 8 -10 18 -17 15 -13 16 -12 3 4 -13 16 -21 21 -21
13z"/>
<path d="M1721 1557 c-13 -21 -12 -21 5 -5 10 10 16 20 13 22 -3 3 -11 -5 -18
-17z"/>
<path d="M1345 1499 c-6 -8 -8 -37 -4 -69 5 -50 6 -52 7 -14 1 27 7 44 17 48
8 3 15 10 15 16 0 6 -4 9 -9 5 -5 -3 -11 2 -13 11 -2 14 -5 15 -13 3z"/>
<path d="M1154 1478 c-7 -11 34 -58 50 -58 6 0 5 4 -3 9 -12 8 -12 12 -2 24 9
12 9 17 -1 23 -20 13 -37 13 -44 2z m39 -14 c-3 -15 -20 -15 -26 0 -4 9 0 13
11 12 9 -2 16 -7 15 -12z"/>
<path d="M1580 1441 c0 -17 18 -21 24 -6 3 9 0 15 -9 15 -8 0 -15 -4 -15 -9z"/>
<path d="M2420 1682 c0 -5 7 -9 15 -9 8 0 12 4 9 9 -3 4 -9 8 -15 8 -5 0 -9
-4 -9 -8z"/>
<path d="M2350 1635 c-11 -13 -10 -14 4 -9 9 3 16 10 16 15 0 13 -6 11 -20 -6z"/>
<path d="M2386 1635 c-3 -8 -1 -15 4 -15 13 0 22 18 11 24 -5 3 -11 -1 -15 -9z"/>
<path d="M2426 1634 c-5 -14 -4 -15 9 -4 17 14 19 20 6 20 -5 0 -12 -7 -15
-16z"/>
<path d="M2276 1593 c-6 -14 -5 -15 5 -6 7 7 10 15 7 18 -3 3 -9 -2 -12 -12z"/>
<path d="M2393 1414 c-20 -21 -16 -42 3 -22 9 9 15 21 13 26 -2 6 -9 4 -16 -4z"/>
<path d="M2186 1271 c-11 -12 -17 -23 -15 -25 8 -8 41 23 37 34 -2 7 -11 3
-22 -9z"/>
<path d="M2241 1274 c0 -11 3 -14 6 -6 3 7 2 16 -1 19 -3 4 -6 -2 -5 -13z"/>
<path d="M2010 1141 c0 -5 5 -13 10 -16 6 -3 10 -2 10 4 0 5 -4 13 -10 16 -5
3 -10 2 -10 -4z"/>
<path d="M1986 1127 c3 -10 9 -15 12 -12 3 3 0 11 -7 18 -10 9 -11 8 -5 -6z"/>
<path d="M1970 1091 c0 -5 5 -13 10 -16 6 -3 10 -2 10 4 0 5 -4 13 -10 16 -5
3 -10 2 -10 -4z"/>
<path d="M2045 1060 c-3 -5 -1 -10 4 -10 6 0 11 5 11 10 0 6 -2 10 -4 10 -3 0
-8 -4 -11 -10z"/>
<path d="M2082 765 c0 -16 2 -22 5 -12 2 9 2 23 0 30 -3 6 -5 -1 -5 -18z"/>
<path d="M2100 691 c0 -6 4 -13 10 -16 6 -3 7 1 4 9 -7 18 -14 21 -14 7z"/>
<path d="M2035 640 c-3 -5 -1 -10 4 -10 6 0 11 5 11 10 0 6 -2 10 -4 10 -3 0
-8 -4 -11 -10z"/>
<path d="M2120 579 c0 -5 9 -13 20 -19 19 -10 25 -4 18 17 -4 10 -38 11 -38 2z"/>
<path d="M1922 488 c2 -6 10 -13 16 -14 7 -1 8 0 2 3 -5 2 -8 9 -4 14 3 5 0 9
-6 9 -7 0 -10 -5 -8 -12z"/>
<path d="M868 1293 c6 -2 18 -2 25 0 6 3 1 5 -13 5 -14 0 -19 -2 -12 -5z"/>
<path d="M1760 1230 c0 -5 4 -10 9 -10 6 0 13 5 16 10 3 6 -1 10 -9 10 -9 0
-16 -4 -16 -10z"/>
<path d="M1660 1200 c0 -5 5 -10 10 -10 6 0 10 5 10 10 0 6 -4 10 -10 10 -5 0
-10 -4 -10 -10z"/>
<path d="M2045 1300 c27 -12 43 -12 25 0 -8 5 -22 9 -30 9 -10 0 -8 -3 5 -9z"/>
<path d="M1905 1250 c-3 -6 1 -7 9 -4 18 7 21 14 7 14 -6 0 -13 -4 -16 -10z"/>
<path d="M1227 784 c-3 -3 12 -23 32 -44 34 -37 36 -38 44 -18 4 13 3 26 -3
32 -8 8 -9 6 -5 -6 10 -26 -4 -22 -36 11 -15 16 -30 27 -32 25z"/>
<path d="M1206 695 c4 -8 7 -15 9 -15 2 0 5 7 9 15 3 9 0 15 -9 15 -9 0 -12
-6 -9 -15z"/>
<path d="M1210 662 c0 -12 19 -26 26 -19 2 2 -2 10 -11 17 -9 8 -15 8 -15 2z"/>
<path d="M1353 648 c-20 -26 -24 -42 -4 -20 11 13 22 18 26 12 3 -6 -1 -17 -9
-26 -20 -19 -20 -25 -1 -18 8 4 15 2 15 -4 0 -6 -6 -13 -12 -15 -7 -3 -8 -6
-3 -6 6 0 17 4 25 9 13 9 13 11 0 21 -11 8 -12 12 -3 15 10 4 10 10 0 25 -14
22 -21 24 -34 7z"/>
<path d="M1560 615 c7 -9 15 -13 17 -11 7 7 -7 26 -19 26 -6 0 -6 -6 2 -15z"/>
<path d="M846 1072 c-11 -13 -14 -22 -7 -27 10 -6 15 1 12 17 0 4 6 5 14 1 13
-4 13 -8 3 -22 -8 -11 -5 -10 10 3 12 11 22 21 22 24 0 3 -3 2 -7 -1 -3 -4
-11 0 -17 9 -10 14 -14 13 -30 -4z"/>
<path d="M952 1017 c-27 -29 -30 -88 -5 -108 15 -12 16 -12 8 1 -16 26 -16 58
1 75 9 9 14 19 10 22 -3 3 -1 12 5 20 19 22 4 15 -19 -10z"/>
<path d="M965 960 c3 -5 8 -10 11 -10 2 0 4 5 4 10 0 6 -5 10 -11 10 -5 0 -7
-4 -4 -10z"/>
<path d="M1356 944 c-5 -14 -4 -15 9 -4 17 14 19 20 6 20 -5 0 -12 -7 -15 -16z"/>
<path d="M940 736 c7 -7 13 -7 20 0 6 6 3 10 -10 10 -13 0 -16 -4 -10 -10z"/>
<path d="M1654 618 c-4 -7 -3 -8 4 -4 7 4 12 2 12 -3 0 -6 7 -11 16 -11 14 0
14 3 4 15 -15 18 -26 19 -36 3z"/>
<path d="M860 520 c0 -5 5 -10 10 -10 6 0 10 5 10 10 0 6 -4 10 -10 10 -5 0
-10 -4 -10 -10z"/>
<path d="M975 420 c3 -5 8 -10 11 -10 2 0 4 5 4 10 0 6 -5 10 -11 10 -5 0 -7
-4 -4 -10z"/>
<path d="M960 390 c0 -5 5 -10 11 -10 5 0 7 5 4 10 -3 6 -8 10 -11 10 -2 0 -4
-4 -4 -10z"/>
<path d="M1098 363 c6 -2 10 -9 7 -14 -4 -5 1 -6 10 -2 13 5 14 7 3 14 -7 5
-17 8 -23 8 -5 0 -4 -3 3 -6z"/>
<path d="M1170 327 c0 -2 14 -13 30 -25 34 -25 38 -24 13 4 -16 17 -43 30 -43
21z"/>
<path d="M1484 289 c-3 -6 -2 -15 3 -20 5 -5 9 -1 10 11 2 22 -2 25 -13 9z"/>
<path d="M1431 287 c2 -1 13 -9 24 -17 19 -14 19 -14 6 3 -7 9 -18 17 -24 17
-6 0 -8 -1 -6 -3z"/>
<path d="M1530 269 c0 -5 5 -7 10 -4 6 3 10 8 10 11 0 2 -4 4 -10 4 -5 0 -10
-5 -10 -11z"/>
<path d="M1235 250 c28 -12 37 -12 30 0 -3 6 -16 10 -28 9 -21 0 -21 -1 -2 -9z"/>
<path d="M1386 441 c-3 -5 3 -11 13 -14 14 -3 18 -1 14 9 -6 16 -19 18 -27 5z"/>
<path d="M1456 454 c-7 -18 0 -34 15 -34 12 0 12 37 0 44 -5 3 -12 -1 -15 -10z"/>
<path d="M1525 389 c-4 -6 -5 -12 -2 -15 2 -3 7 2 10 11 7 17 1 20 -8 4z"/>
<path d="M1675 379 c-4 -6 -5 -12 -2 -15 2 -3 7 2 10 11 7 17 1 20 -8 4z"/>
<path d="M210 1184 c0 -23 43 -184 49 -184 4 0 -1 30 -10 68 -10 37 -18 79
-18 95 -1 15 -5 27 -11 27 -5 0 -10 -3 -10 -6z"/>
<path d="M350 1170 c13 -23 20 -26 20 -6 0 8 -7 16 -15 20 -13 4 -14 2 -5 -14z"/>
<path d="M345 1130 c3 -5 8 -10 11 -10 2 0 4 5 4 10 0 6 -5 10 -11 10 -5 0 -7
-4 -4 -10z"/>
<path d="M473 1004 c0 -16 13 -19 21 -5 3 5 0 11 -7 14 -8 3 -14 -1 -14 -9z"/>
<path d="M356 973 c-4 -9 0 -22 9 -30 8 -7 10 -8 5 -1 -13 15 -13 31 0 23 6
-3 7 1 4 9 -8 20 -10 20 -18 -1z"/>
<path d="M370 890 c0 -5 5 -10 11 -10 5 0 7 5 4 10 -3 6 -8 10 -11 10 -2 0 -4
-4 -4 -10z"/>
<path d="M455 891 c-3 -5 -2 -12 3 -15 5 -3 9 1 9 9 0 17 -3 19 -12 6z"/>
<path d="M457 849 c7 -7 15 -10 18 -7 3 3 -2 9 -12 12 -14 6 -15 5 -6 -5z"/>
<path d="M510 836 c0 -2 7 -9 15 -16 9 -7 15 -8 15 -2 0 5 -7 12 -15 16 -8 3
-15 4 -15 2z"/>
<path d="M549 693 c-13 -16 -12 -17 4 -4 9 7 17 15 17 17 0 8 -8 3 -21 -13z"/>
<path d="M610 606 c0 -2 8 -10 18 -17 15 -13 16 -12 3 4 -13 16 -21 21 -21 13z"/>
<path d="M690 568 c0 -9 7 -19 16 -22 15 -6 15 -4 3 11 -7 10 -15 20 -16 22
-2 2 -3 -3 -3 -11z"/>
<path d="M660 556 c0 -2 8 -10 18 -17 15 -13 16 -12 3 4 -13 16 -21 21 -21 13z"/>
<path d="M797 428 c19 -21 31 -25 14 -5 -6 8 -9 16 -6 19 3 2 -2 5 -10 5 -13
0 -13 -3 2 -19z"/>
<path d="M819 358 c15 -21 31 -23 31 -6 0 6 -3 8 -7 5 -3 -4 -13 -1 -22 6 -14
11 -14 10 -2 -5z"/>
</g>
</svg>
